<?xml version="1.0" encoding="UTF-8"?>
<svg xmlns="http://www.w3.org/2000/svg" xmlns:xlink="http://www.w3.org/1999/xlink" aria-hidden="true" role="img" class="iconify iconify--logos" width="31.88" height="32" preserveAspectRatio="xMidYMid meet" viewBox="0 0 256 257"><defs><linearGradient id="IconifyId1813088fe1fbc01fb466" x1="-.828%" x2="57.636%" y1="7.652%" y2="78.411%"><stop offset="0%" stop-color="#FF00FF"/><stop offset="100%" stop-color="#FF8C00"/></linearGradient></defs><path fill="url(#IconifyId1813088fe1fbc01fb466)" d="M255.153 37.938L134.897 252.976c-2.483 4.144-8.514 4.144-11.289 0L.513 37.938c-2.083-3.475 1.331-7.993 5.895-6.956l235.988 41.117c4.563.767 7.994 4.515 6.757 8.839Z"/><path fill="#FF8C00" d="M185.432.063L96.44 17.501a6.7 6.7 0 0 0-5.905 6.44V128a6.7 6.7 0 0 0 3.397 5.834l89.005 51.846a6.7 6.7 0 0 0 6.666-11.54V17.501a6.7 6.7 0 0 0-3.202-6.844Z"/><path fill="#FF00FF" d="M140.299 126.605L106.587 145.236V327.854a6.7 6.7 0 0 0 10.267 5.834l92.325-53.256a6.7 6.7 0 0 0 3.33-5.927V132.56a6.7 6.7 0 0 0-6.656-6.666Z"/></svg>
